<svg width="32" height="32" viewBox="0 0 32 32" fill="none" xmlns="http://www.w3.org/2000/svg">
  <!-- Background Circle -->
  <circle cx="16" cy="16" r="16" fill="#10B981"/>
  
  <!-- Book Icon -->
  <path d="M8 6C8 5.44772 8.44772 5 9 5H23C23.5523 5 24 5.44772 24 6V26C24 26.5523 23.5523 27 23 27H9C8.44772 27 8 26.5523 8 26V6Z" fill="#F7F7F7"/>
  
  <!-- Book Pages -->
  <path d="M10 8H22V25H10V8Z" fill="#FFFFFF"/>
  
  <!-- Arabic Text Lines (representing hadith text) -->
  <rect x="12" y="10" width="8" height="1" rx="0.5" fill="#10B981"/>
  <rect x="12" y="12" width="6" height="1" rx="0.5" fill="#10B981"/>
  <rect x="12" y="14" width="7" height="1" rx="0.5" fill="#10B981"/>
  <rect x="12" y="16" width="5" height="1" rx="0.5" fill="#10B981"/>
  
  <!-- Small crescent moon symbol -->
  <path d="M18 20C18.8284 20 19.5 19.3284 19.5 18.5C19.5 17.6716 18.8284 17 18 17C17.1716 17 16.5 17.6716 16.5 18.5C16.5 19.3284 17.1716 20 18 20Z" fill="#F59E0B"/>
  <path d="M17.5 18.5C17.5 18.7761 17.7239 19 18 19C18.2761 19 18.5 18.7761 18.5 18.5C18.5 18.2239 18.2761 18 18 18C17.7239 18 17.5 18.2239 17.5 18.5Z" fill="#10B981"/>
</svg>
